<svg width="32" height="33" viewBox="0 0 32 33" fill="none" xmlns="http://www.w3.org/2000/svg">
<g id="ChatsCircle">
<path id="Vector" d="M28.9737 23.8955C29.6789 22.4366 30.0304 20.8269 29.9987 19.2014C29.967 17.5758 29.553 15.9816 28.7914 14.5523C28.0298 13.123 26.9427 11.9003 25.6213 10.9864C24.2998 10.0726 22.7824 9.49422 21.1962 9.29985C20.6701 8.05185 19.9039 6.92363 18.9427 5.98165C17.9815 5.03967 16.8448 4.30299 15.5995 3.81501C14.3543 3.32702 13.0256 3.09761 11.6918 3.14028C10.3581 3.18295 9.0462 3.49685 7.83349 4.06347C6.62079 4.6301 5.53179 5.43799 4.63065 6.43955C3.72952 7.44111 3.03448 8.61608 2.58648 9.89524C2.13847 11.1744 1.94658 12.5319 2.02209 13.8877C2.09761 15.2435 2.43901 16.5702 3.02617 17.7896L2.06867 21.2013C1.98323 21.5065 1.97949 21.8294 2.05783 22.1366C2.13617 22.4438 2.29376 22.7241 2.51427 22.9485C2.73479 23.1729 3.01023 23.3333 3.31208 23.413C3.61394 23.4927 3.93125 23.4889 4.23117 23.402L7.58367 22.4276C8.59531 22.933 9.6835 23.2611 10.8024 23.3981C11.3358 24.6698 12.1182 25.8175 13.1019 26.7713C14.0857 27.725 15.2501 28.4647 16.524 28.9453C17.798 29.4259 19.1549 29.6372 20.5118 29.5664C21.8687 29.4956 23.1972 29.1441 24.4162 28.5335L27.7687 29.5079C28.0686 29.5948 28.3859 29.5986 28.6878 29.5189C28.9896 29.4392 29.2651 29.2788 29.4856 29.0544C29.7061 28.83 29.8637 28.5497 29.942 28.2425C30.0204 27.9353 30.0166 27.6124 29.9312 27.3072L28.9737 23.8955ZM7.69117 20.321C7.59823 20.321 7.50572 20.3339 7.41617 20.3592L4.11492 21.3196L5.05867 17.9601C5.1294 17.7041 5.09889 17.4302 4.97367 17.1968C4.05419 15.4789 3.77379 13.4814 4.18387 11.5702C4.59394 9.65909 5.66702 7.96231 7.20646 6.79082C8.74591 5.61934 10.6486 5.05161 12.5659 5.19167C14.4833 5.33173 16.2868 6.1702 17.646 7.55343C19.0053 8.93667 19.8292 10.772 19.9668 12.7232C20.1045 14.6744 19.5466 16.6107 18.3954 18.1773C17.2443 19.7439 15.5769 20.8359 13.6989 21.2532C11.8209 21.6705 9.85801 21.3852 8.16992 20.4495C8.02357 20.3662 7.85886 20.322 7.69117 20.321ZM26.9412 24.066L27.8849 27.4255L24.5837 26.4651C24.3322 26.3931 24.063 26.4242 23.8337 26.5516C21.9903 27.5722 19.8269 27.8156 17.809 27.2294C15.791 26.6432 14.0799 25.2743 13.0437 23.4172C14.413 23.2721 15.7381 22.8406 16.9357 22.1497C18.1334 21.4588 19.1779 20.5234 20.0036 19.4024C20.8293 18.2813 21.4184 16.9987 21.734 15.6349C22.0495 14.2712 22.0848 12.8558 21.8374 11.4776C23.0357 11.765 24.1526 12.3299 25.1013 13.1285C26.0499 13.927 26.8046 14.9375 27.3067 16.0814C27.8088 17.2253 28.0447 18.4717 27.9961 19.7236C27.9474 20.9754 27.6155 22.199 27.0262 23.2989C26.9 23.5333 26.8694 23.8088 26.9412 24.066Z" fill="url(#paint0_linear_27_31)"/>
</g>
<defs>
<linearGradient id="paint0_linear_27_31" x1="16.0012" y1="3.13525" x2="16.0012" y2="29.5797" gradientUnits="userSpaceOnUse">
<stop stop-color="#0E7DFF"/>
<stop offset="0.755208" stop-color="#EE5151"/>
<stop offset="1" stop-opacity="0.67"/>
</linearGradient>
</defs>
</svg>
