<svg width="255" height="265" viewBox="0 0 255 265" fill="none" xmlns="http://www.w3.org/2000/svg">
<path fill-rule="evenodd" clip-rule="evenodd" d="M238.808 196.101C239.576 194.665 240.32 193.213 241.037 191.745L65.7495 16.4566C64.3614 17.2539 62.989 18.0773 61.6332 18.9261L238.808 196.101ZM60.7665 19.4736C59.2288 20.4538 57.7127 21.4669 56.2191 22.512L235.549 201.842C236.502 200.256 237.423 198.648 238.312 197.019L60.7665 19.4736ZM243.966 185.332C243.183 187.174 242.36 188.995 241.499 190.792L66.6509 15.9438C68.3516 14.9857 70.0756 14.0665 71.8219 13.1875L243.966 185.332ZM244.385 184.336C245.428 181.827 246.398 179.278 247.293 176.692L80.0249 9.42443C77.5665 10.4458 75.1459 11.5444 72.7659 12.7173L244.385 184.336ZM221.401 221.183C223.05 219.312 224.649 217.391 226.193 215.423L43.4701 32.7002C41.6302 34.3719 39.8371 36.0977 38.0932 37.8752L221.401 221.183ZM37.3955 38.5917C35.6673 40.3803 33.9884 42.2202 32.361 44.1088L215.601 227.349C217.362 225.594 219.074 223.788 220.736 221.932L37.3955 38.5917ZM254.738 132.087C254.738 133.004 254.729 133.919 254.711 134.832L120.09 0.210584C122.499 0.0698508 124.925 -0.00146484 127.368 -0.00146484C128.404 -0.00146484 129.438 0.0113692 130.468 0.0368924L254.507 124.076C254.66 126.726 254.738 129.397 254.738 132.087ZM109.239 1.32632C112.377 0.862541 115.553 0.5174 118.76 0.295412L254.677 136.212C254.578 139.546 254.361 142.848 254.028 146.115L109.239 1.32632ZM247.652 175.638C248.549 172.974 249.366 170.272 250.1 167.533L88.7465 6.18017C86.136 7.04058 83.5621 7.98589 81.0276 9.01296L247.652 175.638ZM226.813 214.628C228.35 212.639 229.832 210.603 231.258 208.523L49.9368 27.2011C47.9837 28.7541 46.0753 30.3644 44.2138 32.0297L226.813 214.628ZM253.073 110.676C253.687 114.585 254.136 118.551 254.412 122.567L131.927 0.0815689C135.81 0.223244 139.649 0.5452 143.437 1.03961L253.073 110.676ZM208.655 233.783C206.758 235.415 204.815 236.991 202.828 238.509L22.0691 57.7495C23.4598 55.6349 24.9082 53.5644 26.4119 51.5405L208.655 233.783ZM5.44846 93.7414C6.08897 91.5483 6.783 89.3793 7.52896 87.2361L174.945 254.652C172.907 255.504 170.842 256.302 168.753 257.046L5.44846 93.7414ZM10.5813 79.2883C9.62642 81.5566 8.73121 83.858 7.8977 86.1906L175.939 254.232C178.155 253.283 180.34 252.271 182.491 251.198L10.5813 79.2883ZM11.0036 78.2963C11.629 76.8435 12.2789 75.4045 12.9529 73.9799L187.52 248.547C186.171 249.297 184.808 250.023 183.432 250.724L11.0036 78.2963ZM17.0181 66.0788C15.7513 68.3517 14.5478 70.6673 13.4103 73.0231L188.425 248.038C190.653 246.773 192.841 245.442 194.985 244.046L17.0181 66.0788ZM21.5108 58.6054C20.1231 60.7512 18.7944 62.9414 17.5273 65.1737L195.839 243.485C197.944 242.091 200.006 240.635 202.024 239.118L21.5108 58.6054ZM250.394 166.414C251.128 163.577 251.774 160.703 252.327 157.794L98.0479 3.51526C95.267 4.19469 92.5213 4.96863 89.8141 5.83365L250.394 166.414ZM231.831 207.681C232.927 206.054 233.989 204.401 235.015 202.722L55.3899 23.097C53.8097 24.2216 52.2552 25.3821 50.7274 26.5775L231.831 207.681ZM249.76 95.396C250.995 99.8341 252.011 104.368 252.796 108.985L145.076 1.26485C149.556 1.91102 153.961 2.7988 158.279 3.91509L249.76 95.396ZM214.89 228.052C213.112 229.797 211.285 231.489 209.412 233.126L27.0175 50.7318C28.5277 48.7312 30.0924 46.7768 31.7092 44.8712L214.89 228.052ZM252.548 156.602C253.097 153.567 253.547 150.497 253.892 147.393L108.013 1.51391C105.036 1.98448 102.094 2.56189 99.189 3.24223L252.548 156.602ZM249.192 93.4139C236.404 50.0369 202.665 16.1471 160.209 4.43082L249.192 93.4139ZM0.00012207 131.409C0.016637 127.999 0.157735 124.62 0.418936 121.276L142.407 263.264C139.191 263.656 135.939 263.924 132.654 264.064L0.00012207 131.409ZM143.661 263.105L0.527198 119.97C0.804897 116.804 1.19037 113.669 1.67979 110.571L152.676 261.568C149.708 262.188 146.701 262.702 143.661 263.105ZM153.841 261.318L1.87759 109.355C2.37315 106.392 2.96389 103.463 3.64643 100.571L162.239 259.164C159.477 259.977 156.676 260.697 153.841 261.318ZM5.1327 94.8398C4.70291 96.3592 4.29875 97.8899 3.92073 99.4314L163.327 258.838C164.798 258.39 166.258 257.915 167.707 257.414L5.1327 94.8398ZM0.000422218 132.824L131.29 264.114C129.988 264.155 128.68 264.175 127.368 264.175C125.104 264.175 122.853 264.114 120.618 263.993L0.498698 143.874C0.188061 140.231 0.0200273 136.546 0.000422218 132.824ZM0.640267 145.43L119.113 263.902C115.083 263.635 111.104 263.173 107.185 262.526L2.39902 157.74C1.63218 153.7 1.043 149.593 0.640267 145.43ZM2.7452 159.501L105.476 262.232C100.751 261.383 96.1149 260.264 91.5835 258.891L6.47402 173.781C4.98334 169.131 3.73521 164.365 2.7452 159.501ZM14.9358 194.21C11.9205 188.353 9.31831 182.233 7.16951 175.891L89.5262 258.248C83.3355 256.253 77.3473 253.782 71.6013 250.875L14.9358 194.21ZM16.5379 197.226C28.6704 219.379 46.8004 237.537 68.6381 249.326L16.5379 197.226Z" fill="url(#paint0_linear_38_118)" fill-opacity="0.5"/>
<defs>
<linearGradient id="paint0_linear_38_118" x1="39.15" y1="28.7266" x2="236.825" y2="217.091" gradientUnits="userSpaceOnUse">
<stop stop-color="#0E7DFF" stop-opacity="0.71"/>
<stop offset="0.671875" stop-color="#EE5151"/>
<stop offset="1" stop-color="#636065" stop-opacity="0.9"/>
</linearGradient>
</defs>
</svg>
